<?xml version="1.0" encoding="UTF-8"?>
<svg id="Capa_2" data-name="Capa 2" xmlns="http://www.w3.org/2000/svg" viewBox="0 0 239.7 240.1">
  <defs>
    <style>
      .cls-1 {
        fill: #fff;
      }
    </style>
  </defs>
  <g id="Capa_1-2" data-name="Capa 1">
    <g>
      <path class="cls-1" d="M0,119.8C-.09,53.97,52.76,1.85,116.2.05c68.97-1.96,125.16,54.62,123.47,123.21-1.55,62.91-53.57,117.51-121.25,116.83C53.27,239.45-.49,186.07,0,119.8ZM9.69,120c.14,2.48.03,5.23.23,7.99.53,7.32,1.71,14.52,3.68,21.59,2.9,10.43,7.12,20.28,12.85,29.49,5.11,8.21,11.17,15.63,18.2,22.23,5.88,5.51,12.28,10.39,19.24,14.5,6.76,4,13.84,7.29,21.29,9.75,8.28,2.73,16.78,4.44,25.49,5.22,9.7.87,19.32.33,28.85-1.39,7.84-1.41,15.46-3.72,22.83-6.86,11.32-4.83,21.57-11.34,30.75-19.51,7.92-7.05,14.53-15.2,20.17-24.17,7.03-11.19,11.73-23.31,14.45-36.21,1.92-9.09,2.41-18.3,2.17-27.57-.14-5.4-.86-10.73-1.88-16.01-1.62-8.39-4.14-16.5-7.63-24.31-3.81-8.53-8.58-16.48-14.4-23.78-4.71-5.9-9.95-11.3-15.75-16.18-6.52-5.48-13.58-10.11-21.14-13.96-5.83-2.97-11.91-5.31-18.19-7.2-5.71-1.72-11.5-2.98-17.39-3.71-7.08-.88-14.2-.97-21.34-.54-6.83.41-13.52,1.54-20.11,3.27-14.33,3.77-27.36,10.19-39.12,19.24-7.07,5.44-13.36,11.67-18.95,18.59-5.51,6.83-10.07,14.26-13.81,22.21-2.48,5.27-4.55,10.68-6.16,16.25-2.9,10.04-4.41,20.3-4.32,31.05Z"/>
      <path class="cls-1" d="M119.86,16.32c56.97-.01,103.65,46.27,103.62,103.97-.04,56.85-46.45,104.36-105.38,103.52-55.57-.79-102.49-46-101.98-104.81.5-56.9,46.58-102.63,103.74-102.69ZM122.45,122.11c.2,10.46-.29,23.48.2,36.5.05,1.26.45,1.67,1.7,1.67,14.4-.03,28.81.04,43.21-.05,5.34-.03,10.19-1.92,14.1-5.51,9.11-8.35,9.59-22.08,4.11-31.61-2.19-3.8-5.14-6.81-8.87-9.06-.72-.44-.82-.75-.07-1.27.79-.55,1.5-1.21,2.26-1.81,7.23-5.66,8.38-16.05,2.4-23.07-4.73-5.55-11.14-7.82-18.16-7.95-12.83-.23-25.68-.07-38.51-.07-.32,0-.64.01-.97,0-.8-.02-1.17.35-1.2,1.16-.04,1.15-.2,2.29-.2,3.44-.02,11.69,0,23.38,0,37.63ZM114.52,136.23s-.07,0-.1,0c0-6.03,0-12.06,0-18.09,0-1.56.09-3.12.06-4.69,0-.47.17-1.19-.32-1.39-.52-.21-.82.47-1.14.82-4.31,4.84-8.59,9.7-12.89,14.55-.68.76-.95,1.62-.95,2.65.03,4.05.02,8.1.01,12.15,0,1.9-.12,2.01-2.06,2.01-2.85,0-5.71-.02-8.56,0-3.86.02-7.47-.9-10.81-2.85-5.69-3.32-9.37-8.11-11.01-14.54-.7-2.74-.41-5.47-.51-8.21-.08-2.29.21-4.48.86-6.66,2.76-9.31,11.63-16.05,21.31-16.09,8.05-.03,16.11,0,24.16-.02,1.71,0,1.81-.1,1.82-1.79,0-4.14,0-8.28,0-12.43,0-1.69-.09-1.77-1.83-1.77-8.47,0-16.94,0-25.4,0-2.17,0-4.32.34-6.42.82-8.11,1.87-15.04,5.71-20.6,12.03-3.93,4.47-6.85,9.42-8.44,15.16-1.38,4.97-1.67,10.02-1.43,15.15.53,11.55,5.22,21.04,14.06,28.41,6.91,5.76,14.91,8.79,23.97,8.8,7.82,0,15.65,0,23.47,0q2.73,0,2.73-2.77c0-7.09,0-14.17,0-21.26Z"/>
      <path class="cls-1" d="M137.59,120.09c0-7.41,0-14.82,0-22.23,0-1.82.14-1.97,1.96-1.97,7.13,0,14.27,0,21.4,0,1.44,0,2.85.22,4.2.7,2.89,1.03,3.7,3.72,1.87,6.19-3.73,5.02-7.55,9.96-11.48,14.83-.12.14-.26.27-.34.43-.18.34-.67.63-.4,1.08.21.36.66.25,1.02.25,1.61,0,3.21.12,4.82.22,5.15.33,8.62,3.04,10.6,7.6,2,4.59,1.12,8.92-1.96,12.81-2.23,2.81-5.24,4.2-8.77,4.23-7.09.08-14.17,0-21.26.04-1.25,0-1.69-.41-1.69-1.68.04-7.5.02-15,.02-22.5Z"/>
    </g>
  </g>
</svg>