<svg width="480" height="90" viewBox="0 0 480 90" fill="none" xmlns="http://www.w3.org/2000/svg">
<path d="M57.5981 58.23H46.2781C45.9981 58.23 45.7281 58.34 45.5281 58.54L17.0181 87.25C16.3581 87.92 16.8281 89.05 17.7681 89.05H28.8781C29.1581 89.05 29.4281 88.94 29.6281 88.74L58.3381 60.03C59.0081 59.37 58.5381 58.23 57.5981 58.23Z" fill="#E0832F"/>
<path d="M20.5081 74.8799H12.9781C12.6981 74.8799 12.4281 74.9899 12.2281 75.1899L11.6581 75.7699L0.308107 87.2499C-0.351893 87.9199 0.118107 89.0499 1.05811 89.0499H8.43811C8.71811 89.0499 8.98811 88.9399 9.17811 88.7399L21.2381 76.6799C21.9181 76.0099 21.4481 74.8799 20.5081 74.8799Z" fill="#E0832F"/>
<path d="M88.8481 67.0502C88.6481 66.8502 88.3781 66.7402 88.0981 66.7402H77.0881H74.4181H63.3281C63.0481 66.7402 62.7781 66.8502 62.5781 67.0502L42.5281 87.2502C41.8681 87.9202 42.3381 89.0502 43.2781 89.0502H54.3481C54.6281 89.0502 54.8981 88.9402 55.0981 88.7402L75.0181 68.8202C75.4281 68.4102 76.0981 68.4102 76.5081 68.8202L96.4281 88.7402C96.6281 88.9402 96.8981 89.0502 97.1681 89.0502H108.158C109.098 89.0502 109.568 87.9202 108.908 87.2502L88.8481 67.0502Z" fill="#E0832F"/>
<path d="M26.2081 45.8799H14.3981C13.8181 45.8799 13.3481 46.3499 13.3481 46.9299V71.4499C13.3481 72.0299 13.8181 72.4999 14.3981 72.4999H25.9081C26.4881 72.4999 26.9581 72.0299 26.9581 71.4499V62.0399C26.9581 61.0999 28.0981 60.6299 28.7581 61.2899L32.5181 65.0499C32.9381 65.4699 33.6081 65.4599 34.0181 65.0399L39.0181 59.8699C39.4181 59.4599 39.4181 58.7999 39.0081 58.3999L26.9481 46.1899C26.7581 45.9899 26.4881 45.8799 26.2081 45.8799Z" fill="#E0832F"/>
<path d="M58.078 19.52H46.268C45.688 19.52 45.218 19.99 45.218 20.57V54.03C45.218 54.61 45.688 55.08 46.268 55.08H61.618C62.198 55.08 62.668 54.61 62.668 54.03V39.51C62.668 38.57 63.808 38.1 64.468 38.77L66.948 40.91C67.618 41.58 68.758 41.1 68.748 40.15L68.628 29.87C68.628 29.6 68.518 29.34 68.328 29.14L58.838 19.83C58.628 19.63 58.358 19.52 58.078 19.52Z" fill="#E0832F"/>
<path d="M83.8382 28.1699H81.8082H73.8582H72.0282C71.4482 28.1699 70.9782 28.6399 70.9782 29.2199V33.4699V54.5599C70.9782 54.8399 70.8682 55.1099 70.6682 55.3099L63.8382 62.1399C63.1782 62.7999 63.6482 63.9399 64.5782 63.9399L87.6682 63.9899C88.2482 63.9899 88.7282 63.5199 88.7282 62.9399V56.1199V54.8999V45.5699C88.7282 44.6299 89.8682 44.1599 90.5282 44.8199L97.6282 51.9199C97.8282 52.1199 98.0982 52.2299 98.3782 52.2299L105.618 52.1899C106.548 52.1799 107.018 51.0599 106.358 50.3899L84.5882 28.4699C84.3882 28.2799 84.1182 28.1699 83.8382 28.1699Z" fill="#E0832F"/>
<path d="M77.868 25.9599C82.368 25.9599 86.008 22.3099 86.008 17.8199C86.008 13.3199 82.358 9.66992 77.868 9.66992C73.368 9.66992 69.718 13.3199 69.718 17.8199C69.728 22.3099 73.378 25.9599 77.868 25.9599Z" fill="#E0832F"/>
<path d="M19.618 43.78C23.718 43.78 27.038 40.4599 27.038 36.3599C27.038 32.2599 23.718 28.9399 19.618 28.9399C15.518 28.9399 12.198 32.2599 12.198 36.3599C12.198 40.4599 15.518 43.78 19.618 43.78Z" fill="#E0832F"/>
<path d="M52.3681 17.18C57.1081 17.18 60.9581 13.33 60.9581 8.59001C60.9581 3.85001 57.1081 0 52.3681 0C47.6281 0 43.7781 3.85001 43.7781 8.59001C43.7781 13.34 47.6181 17.18 52.3681 17.18Z" fill="#E0832F"/>
<path d="M146.378 58.3102L111.468 58.2702C111.268 58.2702 111.088 58.2002 110.948 58.0602L108.018 55.2902C107.828 53.9702 106.698 52.9502 105.318 52.9502C103.808 52.9502 102.578 54.1802 102.578 55.6902C102.578 57.2002 103.808 58.4302 105.318 58.4302C105.558 58.4302 105.788 58.3902 106.008 58.3302L110.788 63.1102C110.908 63.2302 110.998 63.3702 111.048 63.5302L116.988 81.8902C117.128 82.3202 117.538 82.6202 117.988 82.6202H120.358C119.208 83.2202 118.418 84.4102 118.418 85.8002C118.418 87.7902 120.028 89.4002 122.018 89.4002C124.008 89.4002 125.618 87.7902 125.618 85.8002C125.618 84.4102 124.828 83.2202 123.678 82.6202H138.168C137.018 83.2202 136.228 84.4102 136.228 85.8002C136.228 87.7902 137.838 89.4002 139.828 89.4002C141.818 89.4002 143.428 87.7902 143.428 85.8002C143.428 84.4102 142.638 83.2202 141.488 82.6202H143.768C144.348 82.6202 144.818 82.1502 144.818 81.5702L144.908 80.8502C145.018 79.9102 144.288 79.0902 143.338 79.0902H120.258C119.818 79.0902 119.448 78.8302 119.418 78.4902C119.418 78.4502 119.408 78.4202 119.398 78.3802L118.628 75.9602C118.478 75.4902 118.798 75.0002 119.288 74.9602C119.318 74.9602 119.338 74.9602 119.368 74.9602H143.718C144.798 74.9602 145.708 74.1502 145.838 73.0802L147.448 59.4302C147.448 59.3902 147.458 59.3502 147.458 59.3102C147.398 58.7502 146.938 58.3102 146.378 58.3102Z" fill="#E0832F"/>
<path d="M116.718 55.4202C120.498 55.4202 123.568 52.3502 123.568 48.5702C123.568 44.7902 120.498 41.7202 116.718 41.7202C112.938 41.7202 109.868 44.7902 109.868 48.5702C109.868 52.3502 112.928 55.4202 116.718 55.4202Z" fill="#E0832F"/>
<path d="M228.898 21.3804C222.868 21.3804 218.458 24.1404 215.438 28.4004H215.288V5.40039H201.288V63.4004H215.288V46.1204C215.288 37.3204 218.208 33.3204 223.908 33.3204C227.678 33.3204 230.288 35.9104 230.288 43.6104V63.4104H244.288V37.7904C244.288 29.2604 239.878 21.3804 228.898 21.3804Z" fill="#0072C2"/>
<path d="M268.378 21.8701C255.028 21.8701 245.348 29.5501 245.128 42.7801C244.938 54.0801 253.728 63.4801 264.988 64.4501C272.358 65.0901 279.908 64.4801 286.288 62.0901V52.1101C281.788 54.3901 277.118 55.2501 273.038 55.2501C265.708 55.2501 261.118 53.0501 260.288 47.4001H290.288V44.8101C290.288 32.6301 284.458 21.8701 268.378 21.8701ZM261.548 39.4001C261.858 34.6901 264.298 30.8401 269.408 30.8401C275.068 30.8401 277.268 34.6901 277.268 39.4001H261.548Z" fill="#0072C2"/>
<path d="M197.288 48.4402C192.008 51.0902 187.738 52.1001 184.798 52.4901C183.708 52.6101 182.608 52.6801 181.518 52.6801C170.378 52.6801 162.438 45.6801 162.438 34.1201C162.438 23.1501 169.478 15.0501 180.288 15.0501C181.508 15.0501 182.708 15.1301 183.888 15.2801C184.148 15.3201 184.428 15.3601 184.708 15.4001C184.778 15.4101 184.838 15.4201 184.908 15.4301C185.508 15.5301 186.168 15.6601 186.858 15.8201C186.978 15.8501 187.108 15.8801 187.228 15.9101C187.508 15.9801 187.788 16.0501 188.078 16.1301C190.458 16.8201 192.808 17.8201 195.198 19.1701V19.1501C195.598 19.3901 195.998 19.6401 196.288 19.9201V6.71014L196.418 6.43015C190.928 4.74015 185.278 3.39014 179.468 3.39014C160.628 3.39014 146.708 13.6001 146.708 34.1001C146.708 56.3701 164.318 64.3001 179.548 64.3001C187.328 64.3001 192.158 63.0302 196.498 61.9402L197.288 61.0401V48.4402V48.4402Z" fill="#0072C2"/>
<path d="M372.578 33.7702C373.058 33.9202 373.298 34.0401 373.298 34.0401V22.3802C371.808 22.1402 369.978 21.9102 368.238 21.9102C361.768 21.9102 358.038 25.2102 355.468 30.3902H355.298V22.3902H342.298V63.3902H357.298V46.1102C357.298 38.1002 361.038 33.3102 367.728 33.3102C369.388 33.3102 370.978 33.3102 372.578 33.7702Z" fill="#0072C2"/>
<path d="M478.288 22.4004H464.288V63.4004H478.288V22.4004Z" fill="#0072C2"/>
<path d="M468.928 19.5701C469.848 19.9401 470.788 20.1101 471.718 20.1101C474.668 20.1101 477.468 18.3601 478.668 15.4801C480.248 11.8401 478.718 7.55011 475.128 5.76011C471.408 3.90011 466.888 5.41011 465.028 9.13011C464.948 9.30011 464.858 9.4901 464.778 9.6701C464.758 9.7101 464.738 9.76011 464.728 9.79011C463.188 13.6501 465.068 18.0301 468.928 19.5701Z" fill="#0072C2"/>
<path d="M412.288 38.5102C411.858 26.0202 402.818 19.4902 392.378 19.4902C388.408 19.4902 385.208 19.8702 382.058 20.6002C380.978 20.7902 379.378 21.2802 378.108 21.7002C377.748 21.8102 377.398 21.9202 377.038 22.0502V22.0702C376.578 22.2302 376.278 22.3402 376.298 22.3402V33.8002C380.208 31.9502 384.768 30.0402 389.318 30.0402C394.428 30.0402 399.078 31.0202 398.668 38.0502C396.858 37.7302 394.348 37.5002 392.068 37.5002C384.528 37.5002 370.938 38.9902 370.938 51.4802C370.938 60.3602 378.168 64.3602 386.258 64.3602C392.068 64.3602 395.998 62.0802 399.218 57.4002H399.378C399.378 58.3502 399.478 59.7302 399.568 61.1302C399.648 62.4102 400.718 63.4202 402.008 63.4002H412.658C412.028 60.1902 411.868 56.9702 412.308 53.7502V38.5102H412.288ZM389.938 54.9302C386.638 54.9302 384.128 53.2802 384.128 50.4502C384.128 46.5202 387.898 45.0302 392.688 45.0302C394.808 45.0302 396.848 45.1902 398.658 45.2602C398.658 50.0602 395.278 54.9302 389.938 54.9302Z" fill="#0072C2"/>
<path d="M324.288 27.4001H323.848C320.278 22.7501 315.548 21.2701 309.968 21.2701C298.798 21.2701 292.668 31.7401 292.668 41.6701C292.668 53.6201 299.108 63.5401 311.128 63.5401C317.568 63.5401 323.228 59.8901 325.008 55.3901H325.288V61.0201C325.288 62.3301 326.348 63.3901 327.658 63.3901H338.288V5.39014H324.288V27.4001V27.4001ZM315.628 53.4102C310.288 53.4102 307.068 48.9302 307.068 42.4102C307.068 36.9902 310.128 32.2802 315.628 32.2802C320.818 32.2802 324.268 36.7601 324.268 42.9601C324.278 48.9301 320.348 53.4102 315.628 53.4102Z" fill="#0072C2"/>
<path d="M446.288 39.6804C446.288 48.4804 443.368 52.4904 437.678 52.4904C433.908 52.4904 431.288 49.9004 431.288 42.2004V22.4004H416.288V47.6404C416.288 56.0304 420.808 63.7904 432.068 63.7904C438.568 63.7904 444.278 61.2304 447.128 55.4004H447.288V60.9004C447.288 62.2804 448.408 63.4004 449.788 63.4004H460.288V22.4004H446.288V39.6804V39.6804Z" fill="#0072C2"/>
<path d="M305.298 83.6397L310.178 84.1897C309.908 85.2097 309.468 86.0897 308.858 86.8297C308.248 87.5697 307.458 88.1497 306.508 88.5597C305.558 88.9697 304.338 89.1797 302.868 89.1797C301.448 89.1797 300.268 89.0497 299.318 88.7797C298.368 88.5097 297.558 88.0897 296.878 87.4897C296.198 86.8997 295.668 86.1997 295.278 85.4097C294.888 84.6097 294.698 83.5497 294.698 82.2397C294.698 80.8597 294.938 79.7197 295.408 78.7997C295.748 78.1297 296.218 77.5297 296.818 76.9897C297.418 76.4597 298.028 76.0597 298.658 75.7997C299.658 75.3897 300.938 75.1797 302.498 75.1797C304.678 75.1797 306.348 75.5697 307.498 76.3497C308.648 77.1297 309.448 78.2697 309.908 79.7797L305.078 80.4197C304.928 79.8497 304.648 79.4197 304.248 79.1297C303.848 78.8397 303.318 78.6997 302.638 78.6997C301.788 78.6997 301.098 78.9997 300.578 79.6097C300.048 80.2197 299.788 81.1397 299.788 82.3697C299.788 83.4697 300.048 84.2997 300.568 84.8697C301.088 85.4397 301.748 85.7297 302.558 85.7297C303.228 85.7297 303.798 85.5597 304.248 85.2097C304.728 84.8897 305.068 84.3597 305.298 83.6397Z" fill="#E0832F"/>
<path d="M325.588 88.89H320.798V86.72C320.088 87.61 319.368 88.25 318.638 88.62C317.908 89 317.018 89.19 315.958 89.19C314.548 89.19 313.438 88.77 312.638 87.92C311.838 87.08 311.438 85.78 311.438 84.02V75.5H316.588V82.86C316.588 83.7 316.748 84.3 317.058 84.65C317.368 85 317.808 85.18 318.368 85.18C318.978 85.18 319.478 84.95 319.878 84.47C320.268 84 320.468 83.16 320.468 81.94V75.5H325.598V88.89H325.588Z" fill="#E0832F"/>
<path d="M342.528 83.47H332.248C332.338 84.29 332.568 84.91 332.918 85.31C333.418 85.89 334.058 86.18 334.858 86.18C335.358 86.18 335.838 86.05 336.298 85.8C336.578 85.64 336.878 85.36 337.188 84.96L342.238 85.43C341.468 86.77 340.528 87.7399 339.438 88.3199C338.348 88.8999 336.778 89.2 334.738 89.2C332.968 89.2 331.568 88.95 330.558 88.45C329.538 87.95 328.698 87.1599 328.028 86.0699C327.358 84.9799 327.028 83.6999 327.028 82.2299C327.028 80.14 327.698 78.44 329.038 77.15C330.378 75.86 332.228 75.21 334.588 75.21C336.508 75.21 338.018 75.5 339.128 76.08C340.238 76.66 341.078 77.4999 341.658 78.5999C342.238 79.6999 342.528 81.13 342.528 82.9V83.47V83.47ZM337.308 81.0099C337.208 80.0199 336.938 79.31 336.508 78.88C336.078 78.45 335.508 78.24 334.798 78.24C333.988 78.24 333.328 78.56 332.848 79.21C332.538 79.61 332.338 80.2099 332.258 81.0099H337.308V81.0099Z" fill="#E0832F"/>
<path d="M342.948 85.1697L348.038 84.6897C348.248 85.2997 348.538 85.7297 348.918 85.9897C349.298 86.2497 349.798 86.3797 350.428 86.3797C351.118 86.3797 351.648 86.2297 352.028 85.9397C352.318 85.7197 352.468 85.4497 352.468 85.1197C352.468 84.7497 352.278 84.4697 351.888 84.2597C351.608 84.1197 350.878 83.9397 349.688 83.7297C347.908 83.4197 346.668 83.1297 345.978 82.8697C345.288 82.5997 344.698 82.1597 344.228 81.5297C343.758 80.8997 343.518 80.1797 343.518 79.3797C343.518 78.4997 343.778 77.7397 344.288 77.0997C344.798 76.4597 345.508 75.9897 346.408 75.6697C347.308 75.3597 348.508 75.1997 350.028 75.1997C351.628 75.1997 352.798 75.3197 353.558 75.5697C354.318 75.8097 354.948 76.1897 355.458 76.6997C355.968 77.2097 356.388 77.9097 356.728 78.7797L351.868 79.2597C351.738 78.8297 351.528 78.5197 351.238 78.3097C350.838 78.0397 350.348 77.9097 349.778 77.9097C349.198 77.9097 348.778 78.0097 348.508 78.2197C348.248 78.4297 348.108 78.6797 348.108 78.9697C348.108 79.2997 348.278 79.5397 348.608 79.7097C348.948 79.8797 349.678 80.0297 350.798 80.1597C352.508 80.3497 353.768 80.6197 354.598 80.9697C355.428 81.3097 356.068 81.8097 356.508 82.4397C356.948 83.0797 357.168 83.7797 357.168 84.5397C357.168 85.3097 356.938 86.0597 356.468 86.7897C355.998 87.5197 355.268 88.0997 354.268 88.5297C353.268 88.9597 351.898 89.1797 350.168 89.1797C347.728 89.1797 345.988 88.8297 344.948 88.1297C343.908 87.4497 343.238 86.4497 342.948 85.1697Z" fill="#E0832F"/>
<path d="M364.768 70.3999V75.4899H367.588V79.2499H364.768V83.9899C364.768 84.5599 364.818 84.9399 364.928 85.1199C365.098 85.4099 365.388 85.5499 365.808 85.5499C366.188 85.5499 366.718 85.4399 367.398 85.2199L367.778 88.7599C366.508 89.0399 365.328 89.1799 364.228 89.1799C362.948 89.1799 362.008 89.0199 361.408 88.6899C360.808 88.3599 360.358 87.8699 360.068 87.1999C359.778 86.5299 359.638 85.4499 359.638 83.9599V79.2499H357.748V75.4899H359.638V73.0299L364.768 70.3999Z" fill="#E0832F"/>
<path d="M373.678 79.8397L368.778 79.3197C368.958 78.4597 369.228 77.7897 369.578 77.2997C369.928 76.8097 370.428 76.3797 371.088 76.0197C371.558 75.7597 372.208 75.5597 373.028 75.4097C373.848 75.2697 374.738 75.1997 375.698 75.1997C377.238 75.1997 378.468 75.2897 379.398 75.4597C380.328 75.6297 381.108 75.9897 381.728 76.5397C382.168 76.9197 382.508 77.4497 382.758 78.1497C383.008 78.8397 383.138 79.4997 383.138 80.1397V86.0497C383.138 86.6797 383.178 87.1697 383.258 87.5297C383.338 87.8897 383.508 88.3397 383.778 88.8997H378.968C378.778 88.5597 378.648 88.2897 378.588 88.1097C378.528 87.9297 378.468 87.6497 378.408 87.2597C377.738 87.9097 377.068 88.3697 376.408 88.6497C375.498 89.0197 374.448 89.1997 373.248 89.1997C371.648 89.1997 370.438 88.8297 369.608 88.0897C368.778 87.3497 368.368 86.4397 368.368 85.3497C368.368 84.3297 368.668 83.4997 369.258 82.8397C369.858 82.1797 370.958 81.6997 372.558 81.3797C374.478 80.9897 375.728 80.7197 376.298 80.5697C376.868 80.4097 377.478 80.2097 378.108 79.9597C378.108 79.3297 377.978 78.8897 377.718 78.6397C377.458 78.3897 376.998 78.2597 376.348 78.2597C375.508 78.2597 374.878 78.3897 374.458 78.6597C374.138 78.8597 373.878 79.2597 373.678 79.8397ZM378.128 82.5297C377.418 82.7797 376.688 82.9997 375.918 83.1997C374.878 83.4797 374.218 83.7497 373.938 84.0197C373.648 84.2997 373.508 84.6097 373.508 84.9697C373.508 85.3697 373.648 85.6997 373.928 85.9597C374.208 86.2197 374.618 86.3397 375.168 86.3397C375.738 86.3397 376.268 86.1997 376.758 85.9197C377.248 85.6397 377.598 85.2997 377.808 84.9097C378.018 84.5097 378.118 83.9897 378.118 83.3497V82.5297H378.128Z" fill="#E0832F"/>
<path d="M392.788 75.4999H397.578V77.4499C398.268 76.6399 398.968 76.0499 399.668 75.7099C400.368 75.3699 401.218 75.1899 402.208 75.1899C403.278 75.1899 404.118 75.3799 404.748 75.7599C405.368 76.1399 405.878 76.6999 406.278 77.4499C407.088 76.5799 407.818 75.9799 408.478 75.6699C409.138 75.3499 409.958 75.1999 410.928 75.1999C412.358 75.1999 413.478 75.6299 414.288 76.4799C415.098 77.3299 415.498 78.6699 415.498 80.4799V88.8899H410.358V81.2599C410.358 80.6499 410.238 80.1999 410.008 79.9099C409.668 79.4499 409.238 79.2199 408.728 79.2199C408.128 79.2199 407.638 79.4399 407.268 79.8799C406.898 80.3199 406.718 81.0199 406.718 81.9899V88.8999H401.578V81.5199C401.578 80.9299 401.548 80.5299 401.478 80.3199C401.368 79.9799 401.178 79.7099 400.908 79.5099C400.638 79.2999 400.318 79.1999 399.958 79.1999C399.368 79.1999 398.878 79.4199 398.508 79.8699C398.128 80.3199 397.938 81.0499 397.938 82.0599V88.8899H392.798V75.4999H392.788Z" fill="#E0832F"/>
<path d="M432.378 83.47H422.098C422.188 84.29 422.418 84.91 422.768 85.31C423.268 85.89 423.908 86.18 424.708 86.18C425.208 86.18 425.688 86.05 426.148 85.8C426.428 85.64 426.728 85.36 427.038 84.96L432.088 85.43C431.318 86.77 430.378 87.7399 429.288 88.3199C428.198 88.8999 426.628 89.2 424.588 89.2C422.818 89.2 421.418 88.95 420.408 88.45C419.388 87.95 418.548 87.1599 417.878 86.0699C417.208 84.9799 416.878 83.6999 416.878 82.2299C416.878 80.14 417.548 78.44 418.888 77.15C420.228 75.86 422.078 75.21 424.438 75.21C426.358 75.21 427.868 75.5 428.978 76.08C430.088 76.66 430.928 77.4999 431.508 78.5999C432.088 79.6999 432.378 81.13 432.378 82.9V83.47V83.47ZM427.168 81.0099C427.068 80.0199 426.798 79.31 426.368 78.88C425.938 78.45 425.368 78.24 424.658 78.24C423.848 78.24 423.188 78.56 422.708 79.21C422.398 79.61 422.198 80.2099 422.118 81.0099H427.168V81.0099Z" fill="#E0832F"/>
<path d="M433.708 75.4997H438.478V77.6797C439.188 76.7897 439.918 76.1497 440.648 75.7697C441.378 75.3897 442.268 75.1997 443.318 75.1997C444.738 75.1997 445.848 75.6197 446.648 76.4697C447.448 77.3097 447.848 78.6197 447.848 80.3797V88.8897H442.698V81.5297C442.698 80.6897 442.538 80.0997 442.228 79.7497C441.918 79.3997 441.478 79.2297 440.918 79.2297C440.298 79.2297 439.788 79.4697 439.408 79.9397C439.018 80.4097 438.828 81.2597 438.828 82.4697V88.8997H433.708V75.4997Z" fill="#E0832F"/>
<path d="M449.248 82.2299C449.248 80.1899 449.938 78.4999 451.318 77.1799C452.698 75.8599 454.558 75.1899 456.898 75.1899C459.578 75.1899 461.598 75.9699 462.968 77.5199C464.068 78.7699 464.618 80.3099 464.618 82.1499C464.618 84.2099 463.938 85.8999 462.568 87.2099C461.198 88.5299 459.318 89.1799 456.908 89.1799C454.758 89.1799 453.018 88.6299 451.688 87.5399C450.068 86.1999 449.248 84.4199 449.248 82.2299ZM454.388 82.2199C454.388 83.4099 454.628 84.2999 455.108 84.8699C455.588 85.4399 456.198 85.7299 456.928 85.7299C457.668 85.7299 458.278 85.4499 458.748 84.8899C459.218 84.3299 459.458 83.4199 459.458 82.1799C459.458 81.0199 459.218 80.1599 458.738 79.5899C458.258 79.0199 457.668 78.7399 456.958 78.7399C456.208 78.7399 455.598 79.0299 455.108 79.5999C454.638 80.1599 454.388 81.0399 454.388 82.2199Z" fill="#E0832F"/>
<path d="M465.158 85.1697L470.248 84.6897C470.458 85.2997 470.748 85.7297 471.128 85.9897C471.508 86.2497 472.008 86.3797 472.638 86.3797C473.328 86.3797 473.858 86.2297 474.238 85.9397C474.528 85.7197 474.678 85.4497 474.678 85.1197C474.678 84.7497 474.488 84.4697 474.098 84.2597C473.818 84.1197 473.088 83.9397 471.898 83.7297C470.118 83.4197 468.878 83.1297 468.188 82.8697C467.498 82.5997 466.908 82.1597 466.438 81.5297C465.968 80.8997 465.728 80.1797 465.728 79.3797C465.728 78.4997 465.988 77.7397 466.498 77.0997C467.008 76.4597 467.718 75.9897 468.618 75.6697C469.518 75.3597 470.718 75.1997 472.238 75.1997C473.838 75.1997 475.008 75.3197 475.768 75.5697C476.528 75.8097 477.158 76.1897 477.668 76.6997C478.178 77.2097 478.598 77.9097 478.938 78.7797L474.078 79.2597C473.948 78.8297 473.738 78.5197 473.448 78.3097C473.048 78.0397 472.558 77.9097 471.988 77.9097C471.408 77.9097 470.988 78.0097 470.718 78.2197C470.458 78.4297 470.318 78.6797 470.318 78.9697C470.318 79.2997 470.488 79.5397 470.818 79.7097C471.158 79.8797 471.888 80.0297 473.008 80.1597C474.718 80.3497 475.978 80.6197 476.808 80.9697C477.638 81.3097 478.278 81.8097 478.718 82.4397C479.158 83.0797 479.378 83.7797 479.378 84.5397C479.378 85.3097 479.148 86.0597 478.678 86.7897C478.208 87.5197 477.478 88.0997 476.478 88.5297C475.478 88.9597 474.108 89.1797 472.378 89.1797C469.938 89.1797 468.198 88.8297 467.158 88.1297C466.108 87.4497 465.448 86.4497 465.158 85.1697Z" fill="#E0832F"/>
</svg>
